<svg width="253" height="75" viewBox="0 0 253 75" fill="none" xmlns="http://www.w3.org/2000/svg">
<path d="M15.5536 19.2V27.5911L11.0432 32H-1V0.0948164H11.0432L14.9956 3.88741V12.0889L11.0897 15.6919L15.5536 19.2ZM5.09136 13.4637H9.46226V4.97778H5.09136V13.4637ZM5.09136 27.1644H9.46226V18.2993H5.09136V27.1644Z" fill="#D8D8D8"/>
<path d="M37.2138 19.7689V32H31.4014V18.6785H26.9375V32H20.7996V0.0948164H32.6104L37.2138 4.5037V12.563L33.1219 16.2133L37.2138 19.7689ZM26.9375 13.7956H31.4014V4.97778H26.9375V13.7956Z" fill="#D8D8D8"/>
<path d="M58.9669 0.0948164V27.5437L54.503 32H46.7377L42.2273 27.5911V0.0948164H48.3186V27.1644H52.8755V0.0948164H58.9669Z" fill="#D8D8D8"/>
<path d="M80.1156 18.0148V27.5437L75.6517 32H67.9793L63.5154 27.5911V22.7081H69.6068V27.1644H74.1172V18.8207L68.3048 18.2993L63.5154 13.9378V4.5037L68.0723 0.0948164H75.3262L79.9761 4.5037V9.38667H74.1172V4.97778H69.6068V13.1319L75.4192 13.6059L80.1156 18.0148Z" fill="#D8D8D8"/>
<path d="M101.006 19.1526V27.5911L96.4955 32H89.3812L84.4988 27.5437V4.5037L88.9627 0.0948164H96.4955L101.006 4.5037V11.52H95.1471V4.97778H90.4972V27.1644H95.1471V19.1526H101.006Z" fill="#D8D8D8"/>
<path d="M122.129 0.0948164V32H116.13V18.4889H111.667V32H105.575V0.0948164H111.667V13.6059H116.13V0.0948164H122.129Z" fill="#D8D8D8"/>
<path d="M138.86 0L143.463 32H137.558L136.954 25.7896H131.327L130.723 32H124.817L129.235 0H138.86ZM131.792 20.9541H136.582L135.047 5.78371H133.001L131.792 20.9541Z" fill="#D8D8D8"/>
<path d="M158.912 0.0948164V4.97778H154.727V32H148.728V4.97778H144.497V0.0948164H158.912Z" fill="#D8D8D8"/>
<path d="M174.566 14.9333L181.634 32H175.124L169.776 18.157L168.428 18.4415V32H162.337V0.0948164H168.428V13.6533L169.776 13.8904L174.519 0.0948164H180.657L174.566 14.9333Z" fill="#D8D8D8"/>
<path d="M196.53 0L201.133 32H195.228L194.623 25.7896H188.997L188.392 32H182.487L186.904 0H196.53ZM189.462 20.9541H194.251L192.717 5.78371H190.671L189.462 20.9541Z" fill="#D8D8D8"/>
<path d="M209.653 26.9748V32H203.654V26.9748H209.653Z" fill="#D8D8D8"/>
<path d="M231.247 19.7689V32H225.435V18.6785H220.971V32H214.833V0.0948164H226.643L231.247 4.5037V12.563L227.155 16.2133L231.247 19.7689ZM220.971 13.7956H225.435V4.97778H220.971V13.7956Z" fill="#D8D8D8"/>
<path d="M253 0.0948164V27.5437L248.536 32H240.771L236.26 27.5911V0.0948164H242.352V27.1644H246.909V0.0948164H253Z" fill="#D8D8D8"/>
<path d="M0.05 56V45.2H4.37C5.14 45.2 5.7625 45.355 6.2375 45.665C6.7125 45.97 7.06 46.355 7.28 46.82C7.5 47.285 7.61 47.755 7.61 48.23C7.61 48.835 7.4725 49.3375 7.1975 49.7375C6.9275 50.1375 6.555 50.405 6.08 50.54V50.165C6.755 50.305 7.26 50.6175 7.595 51.1025C7.935 51.5875 8.105 52.13 8.105 52.73C8.105 53.375 7.985 53.9425 7.745 54.4325C7.51 54.9225 7.15 55.3075 6.665 55.5875C6.18 55.8625 5.57 56 4.835 56H0.05ZM2.12 54.08H4.625C4.9 54.08 5.145 54.0225 5.36 53.9075C5.575 53.7875 5.7425 53.6225 5.8625 53.4125C5.9875 53.1975 6.05 52.945 6.05 52.655C6.05 52.4 5.9975 52.1725 5.8925 51.9725C5.7875 51.7725 5.6275 51.615 5.4125 51.5C5.2025 51.38 4.94 51.32 4.625 51.32H2.12V54.08ZM2.12 49.415H4.34C4.57 49.415 4.775 49.375 4.955 49.295C5.135 49.215 5.2775 49.0925 5.3825 48.9275C5.4875 48.7575 5.54 48.54 5.54 48.275C5.54 47.945 5.4375 47.6675 5.2325 47.4425C5.0275 47.2175 4.73 47.105 4.34 47.105H2.12V49.415ZM9.58578 56V45.2H11.6258V48.86H14.1458C14.2458 48.86 14.3858 48.865 14.5658 48.875C14.7458 48.88 14.9058 48.895 15.0458 48.92C15.6858 49.02 16.2108 49.2325 16.6208 49.5575C17.0358 49.8825 17.3408 50.2925 17.5358 50.7875C17.7358 51.2775 17.8358 51.825 17.8358 52.43C17.8358 53.035 17.7383 53.585 17.5433 54.08C17.3483 54.57 17.0433 54.9775 16.6283 55.3025C16.2183 55.6275 15.6908 55.84 15.0458 55.94C14.9058 55.96 14.7458 55.975 14.5658 55.985C14.3908 55.995 14.2508 56 14.1458 56H9.58578ZM11.6258 54.095H14.0558C14.1608 54.095 14.2758 54.09 14.4008 54.08C14.5258 54.07 14.6408 54.05 14.7458 54.02C15.0208 53.945 15.2333 53.82 15.3833 53.645C15.5333 53.465 15.6358 53.2675 15.6908 53.0525C15.7508 52.8325 15.7808 52.625 15.7808 52.43C15.7808 52.235 15.7508 52.03 15.6908 51.815C15.6358 51.595 15.5333 51.3975 15.3833 51.2225C15.2333 51.0425 15.0208 50.915 14.7458 50.84C14.6408 50.81 14.5258 50.79 14.4008 50.78C14.2758 50.77 14.1608 50.765 14.0558 50.765H11.6258V54.095ZM18.9158 56V45.2H20.9558V56H18.9158ZM23.0627 56V45.2H30.1127V47.105H25.1027V56H23.0627ZM35.9448 56.225C34.8648 56.225 33.9323 55.99 33.1473 55.52C32.3673 55.05 31.7648 54.3925 31.3398 53.5475C30.9198 52.7025 30.7098 51.72 30.7098 50.6C30.7098 49.48 30.9198 48.4975 31.3398 47.6525C31.7648 46.8075 32.3673 46.15 33.1473 45.68C33.9323 45.21 34.8648 44.975 35.9448 44.975C37.0248 44.975 37.9548 45.21 38.7348 45.68C39.5198 46.15 40.1223 46.8075 40.5423 47.6525C40.9673 48.4975 41.1798 49.48 41.1798 50.6C41.1798 51.72 40.9673 52.7025 40.5423 53.5475C40.1223 54.3925 39.5198 55.05 38.7348 55.52C37.9548 55.99 37.0248 56.225 35.9448 56.225ZM35.9448 54.305C36.6298 54.315 37.1998 54.1675 37.6548 53.8625C38.1098 53.5575 38.4498 53.125 38.6748 52.565C38.9048 52.005 39.0198 51.35 39.0198 50.6C39.0198 49.85 38.9048 49.2 38.6748 48.65C38.4498 48.1 38.1098 47.6725 37.6548 47.3675C37.1998 47.0625 36.6298 46.905 35.9448 46.895C35.2598 46.885 34.6898 47.0325 34.2348 47.3375C33.7798 47.6425 33.4373 48.075 33.2073 48.635C32.9823 49.195 32.8698 49.85 32.8698 50.6C32.8698 51.35 32.9823 52 33.2073 52.55C33.4373 53.1 33.7798 53.5275 34.2348 53.8325C34.6898 54.1375 35.2598 54.295 35.9448 54.305ZM41.784 57.8V54.095C42.109 54.095 42.384 54.015 42.609 53.855C42.839 53.69 43.0265 53.46 43.1715 53.165C43.3165 52.865 43.4315 52.515 43.5165 52.115C43.6015 51.715 43.664 51.28 43.704 50.81C43.754 50.21 43.799 49.62 43.839 49.04C43.879 48.455 43.919 47.85 43.959 47.225C43.999 46.595 44.044 45.915 44.094 45.185L51.264 45.2V54.095H52.089V57.8H50.049V56H43.824V57.8H41.784ZM44.829 54.095H49.224V47.105L45.954 47.09C45.919 47.585 45.889 48.04 45.864 48.455C45.844 48.87 45.819 49.29 45.789 49.715C45.759 50.14 45.719 50.615 45.669 51.14C45.619 51.665 45.569 52.0975 45.519 52.4375C45.469 52.7725 45.3915 53.065 45.2865 53.315C45.1865 53.565 45.034 53.825 44.829 54.095ZM53.7365 56V45.2H55.7765V49.64H60.6065V45.2H62.6465V56H60.6065V51.545H55.7765V56H53.7365ZM69.3871 56.225C68.3071 56.225 67.3746 55.99 66.5896 55.52C65.8096 55.05 65.2071 54.3925 64.7821 53.5475C64.3621 52.7025 64.1521 51.72 64.1521 50.6C64.1521 49.48 64.3621 48.4975 64.7821 47.6525C65.2071 46.8075 65.8096 46.15 66.5896 45.68C67.3746 45.21 68.3071 44.975 69.3871 44.975C70.4671 44.975 71.3971 45.21 72.1771 45.68C72.9621 46.15 73.5646 46.8075 73.9846 47.6525C74.4096 48.4975 74.6221 49.48 74.6221 50.6C74.6221 51.72 74.4096 52.7025 73.9846 53.5475C73.5646 54.3925 72.9621 55.05 72.1771 55.52C71.3971 55.99 70.4671 56.225 69.3871 56.225ZM69.3871 54.305C70.0721 54.315 70.6421 54.1675 71.0971 53.8625C71.5521 53.5575 71.8921 53.125 72.1171 52.565C72.3471 52.005 72.4621 51.35 72.4621 50.6C72.4621 49.85 72.3471 49.2 72.1171 48.65C71.8921 48.1 71.5521 47.6725 71.0971 47.3675C70.6421 47.0625 70.0721 46.905 69.3871 46.895C68.7021 46.885 68.1321 47.0325 67.6771 47.3375C67.2221 47.6425 66.8796 48.075 66.6496 48.635C66.4246 49.195 66.3121 49.85 66.3121 50.6C66.3121 51.35 66.4246 52 66.6496 52.55C66.8796 53.1 67.2221 53.5275 67.6771 53.8325C68.1321 54.1375 68.7021 54.295 69.3871 54.305ZM75.7023 56V53.96H77.7423V56H75.7023ZM83.1799 56V45.2H87.4999C88.2699 45.2 88.8924 45.355 89.3674 45.665C89.8424 45.97 90.1899 46.355 90.4099 46.82C90.6299 47.285 90.7399 47.755 90.7399 48.23C90.7399 48.835 90.6024 49.3375 90.3274 49.7375C90.0574 50.1375 89.6849 50.405 89.2099 50.54V50.165C89.8849 50.305 90.3899 50.6175 90.7249 51.1025C91.0649 51.5875 91.2349 52.13 91.2349 52.73C91.2349 53.375 91.1149 53.9425 90.8749 54.4325C90.6399 54.9225 90.2799 55.3075 89.7949 55.5875C89.3099 55.8625 88.6999 56 87.9649 56H83.1799ZM85.2499 54.08H87.7549C88.0299 54.08 88.2749 54.0225 88.4899 53.9075C88.7049 53.7875 88.8724 53.6225 88.9924 53.4125C89.1174 53.1975 89.1799 52.945 89.1799 52.655C89.1799 52.4 89.1274 52.1725 89.0224 51.9725C88.9174 51.7725 88.7574 51.615 88.5424 51.5C88.3324 51.38 88.0699 51.32 87.7549 51.32H85.2499V54.08ZM85.2499 49.415H87.4699C87.6999 49.415 87.9049 49.375 88.0849 49.295C88.2649 49.215 88.4074 49.0925 88.5124 48.9275C88.6174 48.7575 88.6699 48.54 88.6699 48.275C88.6699 47.945 88.5674 47.6675 88.3624 47.4425C88.1574 47.2175 87.8599 47.105 87.4699 47.105H85.2499V49.415ZM92.7307 56V45.2H99.7807V47.105H94.7707V49.415H98.8807V51.32H94.7707V54.095H99.7807V56H92.7307ZM107.713 56V51.29L107.998 51.755C107.723 52 107.331 52.19 106.821 52.325C106.316 52.455 105.788 52.52 105.238 52.52C104.338 52.52 103.621 52.3425 103.086 51.9875C102.551 51.6275 102.166 51.1325 101.931 50.5025C101.696 49.8675 101.578 49.135 101.578 48.305V45.2H103.648V47.69C103.648 48.015 103.661 48.3475 103.686 48.6875C103.711 49.0275 103.783 49.3425 103.903 49.6325C104.028 49.9225 104.233 50.1575 104.518 50.3375C104.803 50.5125 105.203 50.6 105.718 50.6C106.273 50.6 106.743 50.505 107.128 50.315C107.513 50.12 107.783 49.915 107.938 49.7L107.713 50.615V45.2H109.768V56H107.713ZM111.862 56V45.2H113.902V49.64H118.732V45.2H120.772V56H118.732V51.545H113.902V56H111.862ZM127.512 56.225C126.432 56.225 125.5 55.99 124.715 55.52C123.935 55.05 123.332 54.3925 122.907 53.5475C122.487 52.7025 122.277 51.72 122.277 50.6C122.277 49.48 122.487 48.4975 122.907 47.6525C123.332 46.8075 123.935 46.15 124.715 45.68C125.5 45.21 126.432 44.975 127.512 44.975C128.592 44.975 129.522 45.21 130.302 45.68C131.087 46.15 131.69 46.8075 132.11 47.6525C132.535 48.4975 132.747 49.48 132.747 50.6C132.747 51.72 132.535 52.7025 132.11 53.5475C131.69 54.3925 131.087 55.05 130.302 55.52C129.522 55.99 128.592 56.225 127.512 56.225ZM127.512 54.305C128.197 54.315 128.767 54.1675 129.222 53.8625C129.677 53.5575 130.017 53.125 130.242 52.565C130.472 52.005 130.587 51.35 130.587 50.6C130.587 49.85 130.472 49.2 130.242 48.65C130.017 48.1 129.677 47.6725 129.222 47.3675C128.767 47.0625 128.197 46.905 127.512 46.895C126.827 46.885 126.257 47.0325 125.802 47.3375C125.347 47.6425 125.005 48.075 124.775 48.635C124.55 49.195 124.437 49.85 124.437 50.6C124.437 51.35 124.55 52 124.775 52.55C125.005 53.1 125.347 53.5275 125.802 53.8325C126.257 54.1375 126.827 54.295 127.512 54.305ZM133.827 56V53.96H135.867V56H133.827ZM4.325 71.225C3.515 71.225 2.79 71.1025 2.15 70.8575C1.515 70.6075 0.975 70.23 0.53 69.725C0.09 69.22 -0.245 68.585 -0.475 67.82L1.52 67.325C1.71 67.9 2.0375 68.375 2.5025 68.75C2.9675 69.125 3.53 69.31 4.19 69.305C4.655 69.295 5.0975 69.2025 5.5175 69.0275C5.9425 68.8525 6.285 68.585 6.545 68.225C6.735 67.985 6.88 67.7225 6.98 67.4375C7.085 67.1475 7.16 66.85 7.205 66.545H3.425V64.64H7.22C7.13 64.09 6.955 63.6075 6.695 63.1925C6.435 62.7775 6.095 62.455 5.675 62.225C5.255 61.995 4.76 61.885 4.19 61.895C3.515 61.9 2.94 62.09 2.465 62.465C1.995 62.84 1.67 63.34 1.49 63.965L-0.55 63.68C-0.28 62.5 0.2775 61.5875 1.1225 60.9425C1.9675 60.2975 3.035 59.975 4.325 59.975C5.37 59.975 6.2725 60.2125 7.0325 60.6875C7.7975 61.1575 8.3875 61.815 8.8025 62.66C9.2175 63.505 9.425 64.485 9.425 65.6C9.425 66.65 9.22 67.6 8.81 68.45C8.405 69.3 7.82 69.975 7.055 70.475C6.295 70.975 5.385 71.225 4.325 71.225ZM11.6691 71V60.2H13.7091V65.18L17.8191 60.2H20.3091L15.7941 65.525L20.5941 71H18.0141L13.7091 66.08V71H11.6691ZM26.4291 71.225C25.3491 71.225 24.4166 70.99 23.6316 70.52C22.8516 70.05 22.2491 69.3925 21.8241 68.5475C21.4041 67.7025 21.1941 66.72 21.1941 65.6C21.1941 64.48 21.4041 63.4975 21.8241 62.6525C22.2491 61.8075 22.8516 61.15 23.6316 60.68C24.4166 60.21 25.3491 59.975 26.4291 59.975C27.6691 59.975 28.7091 60.2825 29.5491 60.8975C30.3941 61.5125 30.9891 62.345 31.3341 63.395L29.2791 63.965C29.0791 63.31 28.7416 62.8025 28.2666 62.4425C27.7916 62.0775 27.1791 61.895 26.4291 61.895C25.7441 61.895 25.1716 62.0475 24.7116 62.3525C24.2566 62.6575 23.9141 63.0875 23.6841 63.6425C23.4541 64.1975 23.3391 64.85 23.3391 65.6C23.3391 66.35 23.4541 67.0025 23.6841 67.5575C23.9141 68.1125 24.2566 68.5425 24.7116 68.8475C25.1716 69.1525 25.7441 69.305 26.4291 69.305C27.1791 69.305 27.7916 69.1225 28.2666 68.7575C28.7416 68.3925 29.0791 67.885 29.2791 67.235L31.3341 67.805C30.9891 68.855 30.3941 69.6875 29.5491 70.3025C28.7091 70.9175 27.6691 71.225 26.4291 71.225ZM33.7355 71V60.2H35.7755V65.18L39.8855 60.2H42.3755L37.8605 65.525L42.6605 71H40.0805L35.7755 66.08V71H33.7355ZM43.7111 71V69.305C43.9411 69.32 44.1361 69.3 44.2961 69.245C44.4561 69.19 44.5911 69.09 44.7011 68.945C44.8161 68.795 44.9161 68.59 45.0011 68.33C45.0861 68.065 45.1661 67.735 45.2411 67.34C45.3611 66.715 45.4611 66.0575 45.5411 65.3675C45.6261 64.6725 45.6961 63.9925 45.7511 63.3275C45.8061 62.6625 45.8486 62.0575 45.8786 61.5125C45.9086 60.9625 45.9311 60.525 45.9461 60.2H53.3111V71H51.2711V62.105H47.8211C47.8011 62.385 47.7736 62.75 47.7386 63.2C47.7086 63.65 47.6661 64.1475 47.6111 64.6925C47.5561 65.2375 47.4886 65.8025 47.4086 66.3875C47.3286 66.9725 47.2311 67.54 47.1161 68.09C47.0111 68.625 46.8836 69.1 46.7336 69.515C46.5836 69.925 46.3836 70.2625 46.1336 70.5275C45.8886 70.7875 45.5711 70.96 45.1811 71.045C44.7911 71.13 44.3011 71.115 43.7111 71ZM56.1682 71V60.2H58.2082V64.58H60.0082V66.62H58.2082V71H56.1682ZM64.3882 71.225C63.6732 71.225 63.0307 71.0975 62.4607 70.8425C61.8907 70.5875 61.4057 70.2175 61.0057 69.7325C60.6057 69.2425 60.2982 68.65 60.0832 67.955C59.8732 67.26 59.7682 66.475 59.7682 65.6C59.7682 64.72 59.8732 63.935 60.0832 63.245C60.2982 62.55 60.6057 61.96 61.0057 61.475C61.4057 60.985 61.8907 60.6125 62.4607 60.3575C63.0307 60.1025 63.6732 59.975 64.3882 59.975C65.1032 59.975 65.7457 60.1025 66.3157 60.3575C66.8857 60.6125 67.3707 60.985 67.7707 61.475C68.1707 61.96 68.4757 62.55 68.6857 63.245C68.9007 63.935 69.0082 64.72 69.0082 65.6C69.0082 66.475 68.9007 67.26 68.6857 67.955C68.4757 68.65 68.1707 69.2425 67.7707 69.7325C67.3707 70.2175 66.8857 70.5875 66.3157 70.8425C65.7457 71.0975 65.1032 71.225 64.3882 71.225ZM64.3882 69.305C64.8082 69.305 65.1732 69.2175 65.4832 69.0425C65.7932 68.8625 66.0482 68.61 66.2482 68.285C66.4482 67.955 66.5982 67.5625 66.6982 67.1075C66.7982 66.6525 66.8482 66.15 66.8482 65.6C66.8482 65.05 66.7982 64.5475 66.6982 64.0925C66.5982 63.6375 66.4482 63.2475 66.2482 62.9225C66.0482 62.5925 65.7932 62.34 65.4832 62.165C65.1732 61.985 64.8082 61.895 64.3882 61.895C63.9682 61.895 63.6032 61.985 63.2932 62.165C62.9832 62.34 62.7282 62.5925 62.5282 62.9225C62.3282 63.2475 62.1782 63.6375 62.0782 64.0925C61.9782 64.5475 61.9282 65.05 61.9282 65.6C61.9282 66.15 61.9782 66.6525 62.0782 67.1075C62.1782 67.5625 62.3282 67.955 62.5282 68.285C62.7282 68.61 62.9832 68.8625 63.2932 69.0425C63.6032 69.2175 63.9682 69.305 64.3882 69.305ZM75.204 71.225C74.439 71.225 73.7665 71.1125 73.1865 70.8875C72.6115 70.6625 72.1265 70.375 71.7315 70.025C71.3365 69.67 71.029 69.3 70.809 68.915L72.534 67.715C72.654 67.965 72.824 68.2125 73.044 68.4575C73.264 68.7025 73.5565 68.905 73.9215 69.065C74.2865 69.225 74.744 69.305 75.294 69.305C75.814 69.305 76.2315 69.23 76.5465 69.08C76.8665 68.93 77.0965 68.7375 77.2365 68.5025C77.3815 68.2675 77.454 68.02 77.454 67.76C77.454 67.415 77.3515 67.15 77.1465 66.965C76.9465 66.78 76.6865 66.6525 76.3665 66.5825C76.0465 66.5075 75.709 66.465 75.354 66.455C75.009 66.445 74.759 66.4375 74.604 66.4325C74.454 66.4275 74.3515 66.425 74.2965 66.425C74.2465 66.425 74.199 66.425 74.154 66.425V64.505C74.219 64.505 74.314 64.505 74.439 64.505C74.569 64.505 74.699 64.505 74.829 64.505C74.964 64.5 75.074 64.495 75.159 64.49C75.684 64.465 76.1215 64.35 76.4715 64.145C76.8265 63.94 77.004 63.62 77.004 63.185C77.004 62.785 76.8465 62.4675 76.5315 62.2325C76.2215 61.9975 75.804 61.88 75.279 61.88C74.784 61.88 74.3415 61.9875 73.9515 62.2025C73.5665 62.4125 73.284 62.645 73.104 62.9L71.709 61.4C72.084 61.01 72.5865 60.675 73.2165 60.395C73.8465 60.115 74.554 59.975 75.339 59.975C75.814 59.975 76.279 60.0375 76.734 60.1625C77.189 60.2825 77.599 60.47 77.964 60.725C78.329 60.975 78.619 61.2975 78.834 61.6925C79.054 62.0875 79.164 62.56 79.164 63.11C79.164 63.575 79.0815 64.015 78.9165 64.43C78.7515 64.84 78.514 65.185 78.204 65.465C78.654 65.665 79.0015 65.955 79.2465 66.335C79.4915 66.715 79.614 67.19 79.614 67.76C79.614 68.475 79.414 69.0925 79.014 69.6125C78.619 70.1275 78.0865 70.525 77.4165 70.805C76.7515 71.085 76.014 71.225 75.204 71.225ZM90.8489 71H88.7789V63.8L84.0839 71H82.0139V60.2H84.0839V67.4L88.7789 60.2H90.8489V71ZM93.6916 71V60.2H98.0116C98.7816 60.2 99.4041 60.355 99.8791 60.665C100.354 60.97 100.702 61.355 100.922 61.82C101.142 62.285 101.252 62.755 101.252 63.23C101.252 63.835 101.114 64.3375 100.839 64.7375C100.569 65.1375 100.197 65.405 99.7216 65.54V65.165C100.397 65.305 100.902 65.6175 101.237 66.1025C101.577 66.5875 101.747 67.13 101.747 67.73C101.747 68.375 101.627 68.9425 101.387 69.4325C101.152 69.9225 100.792 70.3075 100.307 70.5875C99.8216 70.8625 99.2116 71 98.4766 71H93.6916ZM95.7616 69.08H98.2666C98.5416 69.08 98.7866 69.0225 99.0016 68.9075C99.2166 68.7875 99.3841 68.6225 99.5041 68.4125C99.6291 68.1975 99.6916 67.945 99.6916 67.655C99.6916 67.4 99.6391 67.1725 99.5341 66.9725C99.4291 66.7725 99.2691 66.615 99.0541 66.5C98.8441 66.38 98.5816 66.32 98.2666 66.32H95.7616V69.08ZM95.7616 64.415H97.9816C98.2116 64.415 98.4166 64.375 98.5966 64.295C98.7766 64.215 98.9191 64.0925 99.0241 63.9275C99.1291 63.7575 99.1816 63.54 99.1816 63.275C99.1816 62.945 99.0791 62.6675 98.8741 62.4425C98.6691 62.2175 98.3716 62.105 97.9816 62.105H95.7616V64.415ZM103.992 71V60.2H106.032V64.64H110.862V60.2H112.902V71H110.862V66.545H106.032V71H103.992ZM120.393 71.225C119.313 71.225 118.381 70.99 117.596 70.52C116.816 70.05 116.213 69.3925 115.788 68.5475C115.368 67.7025 115.158 66.72 115.158 65.6C115.158 64.48 115.368 63.4975 115.788 62.6525C116.213 61.8075 116.816 61.15 117.596 60.68C118.381 60.21 119.313 59.975 120.393 59.975C121.473 59.975 122.403 60.21 123.183 60.68C123.968 61.15 124.571 61.8075 124.991 62.6525C125.416 63.4975 125.628 64.48 125.628 65.6C125.628 66.72 125.416 67.7025 124.991 68.5475C124.571 69.3925 123.968 70.05 123.183 70.52C122.403 70.99 121.473 71.225 120.393 71.225ZM120.393 69.305C121.078 69.315 121.648 69.1675 122.103 68.8625C122.558 68.5575 122.898 68.125 123.123 67.565C123.353 67.005 123.468 66.35 123.468 65.6C123.468 64.85 123.353 64.2 123.123 63.65C122.898 63.1 122.558 62.6725 122.103 62.3675C121.648 62.0625 121.078 61.905 120.393 61.895C119.708 61.885 119.138 62.0325 118.683 62.3375C118.228 62.6425 117.886 63.075 117.656 63.635C117.431 64.195 117.318 64.85 117.318 65.6C117.318 66.35 117.431 67 117.656 67.55C117.886 68.1 118.228 68.5275 118.683 68.8325C119.138 69.1375 119.708 69.295 120.393 69.305ZM127.458 71V68.96H129.498V71H127.458Z" fill="#D8D8D8"/>
</svg>
