<svg width="249" height="74" viewBox="0 0 249 74" fill="none" xmlns="http://www.w3.org/2000/svg">
<path d="M83.152 21.88V27.544L80.048 30.52H71.76V8.984H80.048L82.768 11.544V17.08L80.08 19.512L83.152 21.88ZM75.952 18.008H78.96V12.28H75.952V18.008ZM75.952 27.256H78.96V21.272H75.952V27.256ZM98.0583 22.264V30.52H94.0583V21.528H90.9863V30.52H86.7623V8.984H94.8903L98.0583 11.96V17.4L95.2423 19.864L98.0583 22.264ZM90.9863 18.232H94.0583V12.28H90.9863V18.232ZM113.029 8.984V27.512L109.957 30.52H104.613L101.509 27.544V8.984H105.701V27.256H108.837V8.984H113.029ZM127.583 21.08V27.512L124.511 30.52H119.231L116.159 27.544V24.248H120.351V27.256H123.455V21.624L119.455 21.272L116.159 18.328V11.96L119.295 8.984H124.287L127.487 11.96V15.256H123.455V12.28H120.351V17.784L124.351 18.104L127.583 21.08ZM141.959 21.848V27.544L138.855 30.52H133.959L130.599 27.512V11.96L133.671 8.984H138.855L141.959 11.96V16.696H137.927V12.28H134.727V27.256H137.927V21.848H141.959ZM156.496 8.984V30.52H152.368V21.4H149.296V30.52H145.104V8.984H149.296V18.104H152.368V8.984H156.496ZM168.01 8.92L171.178 30.52H167.114L166.698 26.328H162.826L162.41 30.52H158.346L161.386 8.92H168.01ZM163.146 23.064H166.442L165.386 12.824H163.978L163.146 23.064ZM181.809 8.984V12.28H178.929V30.52H174.801V12.28H171.889V8.984H181.809ZM192.582 19L197.446 30.52H192.966L189.286 21.176L188.358 21.368V30.52H184.166V8.984H188.358V18.136L189.286 18.296L192.55 8.984H196.774L192.582 19ZM207.698 8.92L210.866 30.52H206.802L206.385 26.328H202.514L202.098 30.52H198.034L201.074 8.92H207.698ZM202.834 23.064H206.13L205.074 12.824H203.666L202.834 23.064ZM216.729 27.128V30.52H212.601V27.128H216.729ZM231.59 22.264V30.52H227.59V21.528H224.518V30.52H220.294V8.984H228.422L231.59 11.96V17.4L228.774 19.864L231.59 22.264ZM224.518 18.232H227.59V12.28H224.518V18.232ZM246.56 8.984V27.512L243.488 30.52H238.144L235.04 27.544V8.984H239.232V27.256H242.368V8.984H246.56Z" fill="#744746"/>
<path d="M71.12 54V42.48H75.728C76.5493 42.48 77.2133 42.6453 77.72 42.976C78.2267 43.3013 78.5973 43.712 78.832 44.208C79.0667 44.704 79.184 45.2053 79.184 45.712C79.184 46.3573 79.0373 46.8933 78.744 47.32C78.456 47.7467 78.0587 48.032 77.552 48.176V47.776C78.272 47.9253 78.8107 48.2587 79.168 48.776C79.5307 49.2933 79.712 49.872 79.712 50.512C79.712 51.2 79.584 51.8053 79.328 52.328C79.0773 52.8507 78.6933 53.2613 78.176 53.56C77.6587 53.8533 77.008 54 76.224 54H71.12ZM73.328 51.952H76C76.2933 51.952 76.5547 51.8907 76.784 51.768C77.0133 51.64 77.192 51.464 77.32 51.24C77.4533 51.0107 77.52 50.7413 77.52 50.432C77.52 50.16 77.464 49.9173 77.352 49.704C77.24 49.4907 77.0693 49.3227 76.84 49.2C76.616 49.072 76.336 49.008 76 49.008H73.328V51.952ZM73.328 46.976H75.696C75.9413 46.976 76.16 46.9333 76.352 46.848C76.544 46.7627 76.696 46.632 76.808 46.456C76.92 46.2747 76.976 46.0427 76.976 45.76C76.976 45.408 76.8667 45.112 76.648 44.872C76.4293 44.632 76.112 44.512 75.696 44.512H73.328V46.976ZM81.7715 54V42.48H83.9475V46.384H86.6355C86.7422 46.384 86.8915 46.3893 87.0835 46.4C87.2755 46.4053 87.4462 46.4213 87.5955 46.448C88.2782 46.5547 88.8382 46.7813 89.2755 47.128C89.7182 47.4747 90.0435 47.912 90.2515 48.44C90.4648 48.9627 90.5715 49.5467 90.5715 50.192C90.5715 50.8373 90.4675 51.424 90.2595 51.952C90.0515 52.4747 89.7262 52.9093 89.2835 53.256C88.8462 53.6027 88.2835 53.8293 87.5955 53.936C87.4462 53.9573 87.2755 53.9733 87.0835 53.984C86.8968 53.9947 86.7475 54 86.6355 54H81.7715ZM83.9475 51.968H86.5395C86.6515 51.968 86.7742 51.9627 86.9075 51.952C87.0408 51.9413 87.1635 51.92 87.2755 51.888C87.5688 51.808 87.7955 51.6747 87.9555 51.488C88.1155 51.296 88.2248 51.0853 88.2835 50.856C88.3475 50.6213 88.3795 50.4 88.3795 50.192C88.3795 49.984 88.3475 49.7653 88.2835 49.536C88.2248 49.3013 88.1155 49.0907 87.9555 48.904C87.7955 48.712 87.5688 48.576 87.2755 48.496C87.1635 48.464 87.0408 48.4427 86.9075 48.432C86.7742 48.4213 86.6515 48.416 86.5395 48.416H83.9475V51.968ZM91.7235 54V42.48H93.8995V54H91.7235ZM96.6269 54V42.48H104.147V44.512H98.8029V54H96.6269ZM110.848 54.24C109.696 54.24 108.701 53.9893 107.864 53.488C107.032 52.9867 106.389 52.2853 105.936 51.384C105.488 50.4827 105.264 49.4347 105.264 48.24C105.264 47.0453 105.488 45.9973 105.936 45.096C106.389 44.1947 107.032 43.4933 107.864 42.992C108.701 42.4907 109.696 42.24 110.848 42.24C112 42.24 112.992 42.4907 113.824 42.992C114.661 43.4933 115.304 44.1947 115.752 45.096C116.205 45.9973 116.432 47.0453 116.432 48.24C116.432 49.4347 116.205 50.4827 115.752 51.384C115.304 52.2853 114.661 52.9867 113.824 53.488C112.992 53.9893 112 54.24 110.848 54.24ZM110.848 52.192C111.578 52.2027 112.186 52.0453 112.672 51.72C113.157 51.3947 113.52 50.9333 113.76 50.336C114.005 49.7387 114.128 49.04 114.128 48.24C114.128 47.44 114.005 46.7467 113.76 46.16C113.52 45.5733 113.157 45.1173 112.672 44.792C112.186 44.4667 111.578 44.2987 110.848 44.288C110.117 44.2773 109.509 44.4347 109.024 44.76C108.538 45.0853 108.173 45.5467 107.928 46.144C107.688 46.7413 107.568 47.44 107.568 48.24C107.568 49.04 107.688 49.7333 107.928 50.32C108.173 50.9067 108.538 51.3627 109.024 51.688C109.509 52.0133 110.117 52.1813 110.848 52.192ZM117.556 55.92V51.968C117.903 51.968 118.196 51.8827 118.436 51.712C118.682 51.536 118.882 51.2907 119.036 50.976C119.191 50.656 119.314 50.2827 119.404 49.856C119.495 49.4293 119.562 48.9653 119.604 48.464C119.658 47.824 119.706 47.1947 119.748 46.576C119.791 45.952 119.834 45.3067 119.876 44.64C119.919 43.968 119.967 43.2427 120.02 42.464L127.668 42.48V51.968H128.548V55.92H126.372V54H119.732V55.92H117.556ZM120.804 51.968H125.492V44.512L122.004 44.496C121.967 45.024 121.935 45.5093 121.908 45.952C121.887 46.3947 121.86 46.8427 121.828 47.296C121.796 47.7493 121.754 48.256 121.7 48.816C121.647 49.376 121.594 49.8373 121.54 50.2C121.487 50.5573 121.404 50.8693 121.292 51.136C121.186 51.4027 121.023 51.68 120.804 51.968ZM130.786 54V42.48H132.962V47.216H138.114V42.48H140.29V54H138.114V49.248H132.962V54H130.786ZM147.96 54.24C146.808 54.24 145.813 53.9893 144.976 53.488C144.144 52.9867 143.501 52.2853 143.048 51.384C142.6 50.4827 142.376 49.4347 142.376 48.24C142.376 47.0453 142.6 45.9973 143.048 45.096C143.501 44.1947 144.144 43.4933 144.976 42.992C145.813 42.4907 146.808 42.24 147.96 42.24C149.112 42.24 150.104 42.4907 150.936 42.992C151.773 43.4933 152.416 44.1947 152.864 45.096C153.317 45.9973 153.544 47.0453 153.544 48.24C153.544 49.4347 153.317 50.4827 152.864 51.384C152.416 52.2853 151.773 52.9867 150.936 53.488C150.104 53.9893 149.112 54.24 147.96 54.24ZM147.96 52.192C148.69 52.2027 149.298 52.0453 149.784 51.72C150.269 51.3947 150.632 50.9333 150.872 50.336C151.117 49.7387 151.24 49.04 151.24 48.24C151.24 47.44 151.117 46.7467 150.872 46.16C150.632 45.5733 150.269 45.1173 149.784 44.792C149.298 44.4667 148.69 44.2987 147.96 44.288C147.229 44.2773 146.621 44.4347 146.136 44.76C145.65 45.0853 145.285 45.5467 145.04 46.144C144.8 46.7413 144.68 47.44 144.68 48.24C144.68 49.04 144.8 49.7333 145.04 50.32C145.285 50.9067 145.65 51.3627 146.136 51.688C146.621 52.0133 147.229 52.1813 147.96 52.192ZM155.176 54V51.824H157.352V54H155.176ZM164.112 54V42.48H168.72C169.541 42.48 170.205 42.6453 170.712 42.976C171.219 43.3013 171.589 43.712 171.824 44.208C172.059 44.704 172.176 45.2053 172.176 45.712C172.176 46.3573 172.029 46.8933 171.736 47.32C171.448 47.7467 171.051 48.032 170.544 48.176V47.776C171.264 47.9253 171.803 48.2587 172.16 48.776C172.523 49.2933 172.704 49.872 172.704 50.512C172.704 51.2 172.576 51.8053 172.32 52.328C172.069 52.8507 171.685 53.2613 171.168 53.56C170.651 53.8533 170 54 169.216 54H164.112ZM166.32 51.952H168.992C169.285 51.952 169.547 51.8907 169.776 51.768C170.005 51.64 170.184 51.464 170.312 51.24C170.445 51.0107 170.512 50.7413 170.512 50.432C170.512 50.16 170.456 49.9173 170.344 49.704C170.232 49.4907 170.061 49.3227 169.832 49.2C169.608 49.072 169.328 49.008 168.992 49.008H166.32V51.952ZM166.32 46.976H168.688C168.933 46.976 169.152 46.9333 169.344 46.848C169.536 46.7627 169.688 46.632 169.8 46.456C169.912 46.2747 169.968 46.0427 169.968 45.76C169.968 45.408 169.859 45.112 169.64 44.872C169.421 44.632 169.104 44.512 168.688 44.512H166.32V46.976ZM174.779 54V42.48H182.299V44.512H176.955V46.976H181.339V49.008H176.955V51.968H182.299V54H174.779ZM191.241 54V48.976L191.545 49.472C191.252 49.7333 190.833 49.936 190.289 50.08C189.75 50.2187 189.188 50.288 188.601 50.288C187.641 50.288 186.876 50.0987 186.305 49.72C185.734 49.336 185.324 48.808 185.073 48.136C184.822 47.4587 184.697 46.6773 184.697 45.792V42.48H186.905V45.136C186.905 45.4827 186.918 45.8373 186.945 46.2C186.972 46.5627 187.049 46.8987 187.177 47.208C187.31 47.5173 187.529 47.768 187.833 47.96C188.137 48.1467 188.564 48.24 189.113 48.24C189.705 48.24 190.206 48.1387 190.617 47.936C191.028 47.728 191.316 47.5093 191.481 47.28L191.241 48.256V42.48H193.433V54H191.241ZM196.146 54V42.48H198.322V47.216H203.474V42.48H205.65V54H203.474V49.248H198.322V54H196.146ZM213.32 54.24C212.168 54.24 211.173 53.9893 210.336 53.488C209.504 52.9867 208.861 52.2853 208.408 51.384C207.96 50.4827 207.736 49.4347 207.736 48.24C207.736 47.0453 207.96 45.9973 208.408 45.096C208.861 44.1947 209.504 43.4933 210.336 42.992C211.173 42.4907 212.168 42.24 213.32 42.24C214.472 42.24 215.464 42.4907 216.296 42.992C217.133 43.4933 217.776 44.1947 218.224 45.096C218.677 45.9973 218.904 47.0453 218.904 48.24C218.904 49.4347 218.677 50.4827 218.224 51.384C217.776 52.2853 217.133 52.9867 216.296 53.488C215.464 53.9893 214.472 54.24 213.32 54.24ZM213.32 52.192C214.05 52.2027 214.658 52.0453 215.144 51.72C215.629 51.3947 215.992 50.9333 216.232 50.336C216.477 49.7387 216.6 49.04 216.6 48.24C216.6 47.44 216.477 46.7467 216.232 46.16C215.992 45.5733 215.629 45.1173 215.144 44.792C214.658 44.4667 214.05 44.2987 213.32 44.288C212.589 44.2773 211.981 44.4347 211.496 44.76C211.01 45.0853 210.645 45.5467 210.4 46.144C210.16 46.7413 210.04 47.44 210.04 48.24C210.04 49.04 210.16 49.7333 210.4 50.32C210.645 50.9067 211.01 51.3627 211.496 51.688C211.981 52.0133 212.589 52.1813 213.32 52.192ZM220.536 54V51.824H222.712V54H220.536Z" fill="#1E1E1E"/>
<path d="M75.68 72.24C74.816 72.24 74.0427 72.1093 73.36 71.848C72.6827 71.5813 72.1067 71.1787 71.632 70.64C71.1627 70.1013 70.8053 69.424 70.56 68.608L72.688 68.08C72.8907 68.6933 73.24 69.2 73.736 69.6C74.232 70 74.832 70.1973 75.536 70.192C76.032 70.1813 76.504 70.0827 76.952 69.896C77.4053 69.7093 77.7707 69.424 78.048 69.04C78.2507 68.784 78.4053 68.504 78.512 68.2C78.624 67.8907 78.704 67.5733 78.752 67.248H74.72V65.216H78.768C78.672 64.6293 78.4853 64.1147 78.208 63.672C77.9307 63.2293 77.568 62.8853 77.12 62.64C76.672 62.3947 76.144 62.2773 75.536 62.288C74.816 62.2933 74.2027 62.496 73.696 62.896C73.1947 63.296 72.848 63.8293 72.656 64.496L70.48 64.192C70.768 62.9333 71.3627 61.96 72.264 61.272C73.1653 60.584 74.304 60.24 75.68 60.24C76.7947 60.24 77.7573 60.4933 78.568 61C79.384 61.5013 80.0133 62.2027 80.456 63.104C80.8987 64.0053 81.12 65.0507 81.12 66.24C81.12 67.36 80.9013 68.3733 80.464 69.28C80.032 70.1867 79.408 70.9067 78.592 71.44C77.7813 71.9733 76.8107 72.24 75.68 72.24ZM84.9537 72V60.48H87.1298V65.792L91.5138 60.48H94.1698L89.3538 66.16L94.4738 72H91.7218L87.1298 66.752V72H84.9537ZM102.138 72.24C100.986 72.24 99.9911 71.9893 99.1537 71.488C98.3217 70.9867 97.6791 70.2853 97.2257 69.384C96.7777 68.4827 96.5537 67.4347 96.5537 66.24C96.5537 65.0453 96.7777 63.9973 97.2257 63.096C97.6791 62.1947 98.3217 61.4933 99.1537 60.992C99.9911 60.4907 100.986 60.24 102.138 60.24C103.46 60.24 104.57 60.568 105.466 61.224C106.367 61.88 107.002 62.768 107.37 63.888L105.178 64.496C104.964 63.7973 104.604 63.256 104.098 62.872C103.591 62.4827 102.938 62.288 102.138 62.288C101.407 62.288 100.796 62.4507 100.306 62.776C99.8204 63.1013 99.4551 63.56 99.2097 64.152C98.9644 64.744 98.8417 65.44 98.8417 66.24C98.8417 67.04 98.9644 67.736 99.2097 68.328C99.4551 68.92 99.8204 69.3787 100.306 69.704C100.796 70.0293 101.407 70.192 102.138 70.192C102.938 70.192 103.591 69.9973 104.098 69.608C104.604 69.2187 104.964 68.6773 105.178 67.984L107.37 68.592C107.002 69.712 106.367 70.6 105.466 71.256C104.57 71.912 103.46 72.24 102.138 72.24ZM111.371 72V60.48H113.547V65.792L117.931 60.48H120.587L115.771 66.16L120.891 72H118.139L113.547 66.752V72H111.371ZM123.452 72V70.192C123.697 70.208 123.905 70.1867 124.076 70.128C124.247 70.0693 124.391 69.9627 124.508 69.808C124.631 69.648 124.737 69.4293 124.828 69.152C124.919 68.8693 125.004 68.5173 125.084 68.096C125.212 67.4293 125.319 66.728 125.404 65.992C125.495 65.2507 125.569 64.5253 125.628 63.816C125.687 63.1067 125.732 62.4613 125.764 61.88C125.796 61.2933 125.82 60.8267 125.836 60.48H133.692V72H131.516V62.512H127.836C127.815 62.8107 127.785 63.2 127.748 63.68C127.716 64.16 127.671 64.6907 127.612 65.272C127.553 65.8533 127.481 66.456 127.396 67.08C127.311 67.704 127.207 68.3093 127.084 68.896C126.972 69.4667 126.836 69.9733 126.676 70.416C126.516 70.8533 126.303 71.2133 126.036 71.496C125.775 71.7733 125.436 71.9573 125.02 72.048C124.604 72.1387 124.081 72.1227 123.452 72ZM138.179 72V60.48H140.355V65.152H142.275V67.328H140.355V72H138.179ZM146.947 72.24C146.185 72.24 145.499 72.104 144.891 71.832C144.283 71.56 143.766 71.1653 143.339 70.648C142.913 70.1253 142.585 69.4933 142.355 68.752C142.131 68.0107 142.019 67.1733 142.019 66.24C142.019 65.3013 142.131 64.464 142.355 63.728C142.585 62.9867 142.913 62.3573 143.339 61.84C143.766 61.3173 144.283 60.92 144.891 60.648C145.499 60.376 146.185 60.24 146.947 60.24C147.71 60.24 148.395 60.376 149.003 60.648C149.611 60.92 150.129 61.3173 150.555 61.84C150.982 62.3573 151.307 62.9867 151.531 63.728C151.761 64.464 151.875 65.3013 151.875 66.24C151.875 67.1733 151.761 68.0107 151.531 68.752C151.307 69.4933 150.982 70.1253 150.555 70.648C150.129 71.1653 149.611 71.56 149.003 71.832C148.395 72.104 147.71 72.24 146.947 72.24ZM146.947 70.192C147.395 70.192 147.785 70.0987 148.115 69.912C148.446 69.72 148.718 69.4507 148.931 69.104C149.145 68.752 149.305 68.3333 149.411 67.848C149.518 67.3627 149.571 66.8267 149.571 66.24C149.571 65.6533 149.518 65.1173 149.411 64.632C149.305 64.1467 149.145 63.7307 148.931 63.384C148.718 63.032 148.446 62.7627 148.115 62.576C147.785 62.384 147.395 62.288 146.947 62.288C146.499 62.288 146.11 62.384 145.779 62.576C145.449 62.7627 145.177 63.032 144.963 63.384C144.75 63.7307 144.59 64.1467 144.483 64.632C144.377 65.1173 144.323 65.6533 144.323 66.24C144.323 66.8267 144.377 67.3627 144.483 67.848C144.59 68.3333 144.75 68.752 144.963 69.104C145.177 69.4507 145.449 69.72 145.779 69.912C146.11 70.0987 146.499 70.192 146.947 70.192ZM159.924 72.24C159.108 72.24 158.391 72.12 157.772 71.88C157.159 71.64 156.642 71.3333 156.22 70.96C155.799 70.5813 155.471 70.1867 155.236 69.776L157.076 68.496C157.204 68.7627 157.386 69.0267 157.62 69.288C157.855 69.5493 158.167 69.7653 158.556 69.936C158.946 70.1067 159.434 70.192 160.02 70.192C160.575 70.192 161.02 70.112 161.356 69.952C161.698 69.792 161.943 69.5867 162.092 69.336C162.247 69.0853 162.324 68.8213 162.324 68.544C162.324 68.176 162.215 67.8933 161.996 67.696C161.783 67.4987 161.506 67.3627 161.164 67.288C160.823 67.208 160.463 67.1627 160.084 67.152C159.716 67.1413 159.45 67.1333 159.284 67.128C159.124 67.1227 159.015 67.12 158.956 67.12C158.903 67.12 158.852 67.12 158.804 67.12V65.072C158.874 65.072 158.975 65.072 159.108 65.072C159.247 65.072 159.386 65.072 159.524 65.072C159.668 65.0667 159.786 65.0613 159.876 65.056C160.436 65.0293 160.903 64.9067 161.276 64.688C161.655 64.4693 161.844 64.128 161.844 63.664C161.844 63.2373 161.676 62.8987 161.34 62.648C161.01 62.3973 160.564 62.272 160.004 62.272C159.476 62.272 159.004 62.3867 158.588 62.616C158.178 62.84 157.876 63.088 157.684 63.36L156.196 61.76C156.596 61.344 157.132 60.9867 157.804 60.688C158.476 60.3893 159.231 60.24 160.068 60.24C160.575 60.24 161.071 60.3067 161.556 60.44C162.042 60.568 162.479 60.768 162.868 61.04C163.258 61.3067 163.567 61.6507 163.796 62.072C164.031 62.4933 164.148 62.9973 164.148 63.584C164.148 64.08 164.06 64.5493 163.884 64.992C163.708 65.4293 163.455 65.7973 163.124 66.096C163.604 66.3093 163.975 66.6187 164.236 67.024C164.498 67.4293 164.628 67.936 164.628 68.544C164.628 69.3067 164.415 69.9653 163.988 70.52C163.567 71.0693 162.999 71.4933 162.284 71.792C161.575 72.0907 160.788 72.24 159.924 72.24ZM178.052 72H175.844V64.32L170.836 72H168.628V60.48H170.836V68.16L175.844 60.48H178.052V72ZM182.524 72V60.48H187.132C187.954 60.48 188.618 60.6453 189.124 60.976C189.631 61.3013 190.002 61.712 190.236 62.208C190.471 62.704 190.588 63.2053 190.588 63.712C190.588 64.3573 190.442 64.8933 190.148 65.32C189.86 65.7467 189.463 66.032 188.956 66.176V65.776C189.676 65.9253 190.215 66.2587 190.572 66.776C190.935 67.2933 191.116 67.872 191.116 68.512C191.116 69.2 190.988 69.8053 190.732 70.328C190.482 70.8507 190.098 71.2613 189.58 71.56C189.063 71.8533 188.412 72 187.628 72H182.524ZM184.732 69.952H187.404C187.698 69.952 187.959 69.8907 188.188 69.768C188.418 69.64 188.596 69.464 188.724 69.24C188.858 69.0107 188.924 68.7413 188.924 68.432C188.924 68.16 188.868 67.9173 188.756 67.704C188.644 67.4907 188.474 67.3227 188.244 67.2C188.02 67.072 187.74 67.008 187.404 67.008H184.732V69.952ZM184.732 64.976H187.1C187.346 64.976 187.564 64.9333 187.756 64.848C187.948 64.7627 188.1 64.632 188.212 64.456C188.324 64.2747 188.38 64.0427 188.38 63.76C188.38 63.408 188.271 63.112 188.052 62.872C187.834 62.632 187.516 62.512 187.1 62.512H184.732V64.976ZM194.952 72V60.48H197.128V65.216H202.28V60.48H204.456V72H202.28V67.248H197.128V72H194.952ZM213.886 72.24C212.734 72.24 211.739 71.9893 210.902 71.488C210.07 70.9867 209.427 70.2853 208.974 69.384C208.526 68.4827 208.302 67.4347 208.302 66.24C208.302 65.0453 208.526 63.9973 208.974 63.096C209.427 62.1947 210.07 61.4933 210.902 60.992C211.739 60.4907 212.734 60.24 213.886 60.24C215.038 60.24 216.03 60.4907 216.862 60.992C217.699 61.4933 218.342 62.1947 218.79 63.096C219.243 63.9973 219.47 65.0453 219.47 66.24C219.47 67.4347 219.243 68.4827 218.79 69.384C218.342 70.2853 217.699 70.9867 216.862 71.488C216.03 71.9893 215.038 72.24 213.886 72.24ZM213.886 70.192C214.617 70.2027 215.225 70.0453 215.71 69.72C216.195 69.3947 216.558 68.9333 216.798 68.336C217.043 67.7387 217.166 67.04 217.166 66.24C217.166 65.44 217.043 64.7467 216.798 64.16C216.558 63.5733 216.195 63.1173 215.71 62.792C215.225 62.4667 214.617 62.2987 213.886 62.288C213.155 62.2773 212.547 62.4347 212.062 62.76C211.577 63.0853 211.211 63.5467 210.966 64.144C210.726 64.7413 210.606 65.44 210.606 66.24C210.606 67.04 210.726 67.7333 210.966 68.32C211.211 68.9067 211.577 69.3627 212.062 69.688C212.547 70.0133 213.155 70.1813 213.886 70.192Z" fill="#1E1E1E"/>
<path d="M221.472 72V69.824H223.648V72H221.472Z" fill="#1E1E1E"/>
<g clip-path="url(#clip0_965_1846)">
<path fill-rule="evenodd" clip-rule="evenodd" d="M49.2873 0.060713C49.4042 0.0550773 49.5306 0.0456711 49.6616 0.0359253C50.054 0.00671736 50.4874 -0.025542 50.829 0.0314923C52.0813 0.24059 54.4209 1.89934 55.3685 2.70699C57.9927 4.94308 59.6569 8.00462 59.816 11.3503C59.8938 12.9898 59.8804 14.6418 59.867 16.2888V16.2891C59.8624 16.8714 59.8576 17.453 59.857 18.0333L59.8436 29.8255L59.8584 38.7128C59.8586 39.1649 59.8631 39.6188 59.8675 40.0737C59.8899 42.3992 59.9127 44.7524 59.4007 47.0248C59.3583 47.2223 59.3125 47.419 59.263 47.6147C59.2136 47.8107 59.1605 48.0057 59.104 48.1999C59.0476 48.394 58.9875 48.5873 58.9239 48.7796C58.8604 48.9719 58.7934 49.1631 58.723 49.3532C58.6525 49.5433 58.5785 49.7323 58.5014 49.9201C58.424 50.1078 58.3433 50.2942 58.2592 50.4795C58.175 50.6646 58.0876 50.8485 57.997 51.0308C57.9062 51.2133 57.8122 51.3941 57.715 51.5734C57.6175 51.7528 57.517 51.9305 57.4133 52.1067C57.3095 52.2828 57.2027 52.4573 57.0927 52.6301C56.9825 52.8027 56.8693 52.9736 56.7531 53.1428C56.6369 53.3118 56.5176 53.4789 56.3951 53.6441C56.2729 53.8094 56.1476 53.9728 56.0193 54.1341C55.891 54.2953 55.7598 54.4544 55.6259 54.6115C55.4919 54.7686 55.355 54.9235 55.2153 55.0761C55.0758 55.2288 54.9334 55.3793 54.7882 55.5274C52.6437 57.7154 50.0231 59.3819 47.4117 61.0427C46.8349 61.4095 46.2583 61.7761 45.6876 62.148L37.2433 67.7283C36.6124 68.1409 35.9744 68.5484 35.3358 68.9562L35.335 68.9566C33.9467 69.8431 32.555 70.7317 31.2254 71.6813C31.119 71.707 31.0132 71.734 30.9077 71.761L30.9073 71.7611C30.1548 71.9535 29.4179 72.1418 28.6585 71.8464C28.0388 71.2495 26.6204 70.3816 25.427 69.6515L25.4269 69.6514C24.9315 69.3483 24.475 69.0689 24.1303 68.8425L13.2225 61.7346C12.7225 61.4064 12.2135 61.0832 11.7031 60.759C10.3474 59.8981 8.98149 59.0306 7.74623 58.046C4.10208 55.1414 0.98487 50.7012 0.222242 46.2228C0.0114963 44.9851 0.0344246 43.6907 0.0569565 42.4186C0.0636336 42.0416 0.0702758 41.6667 0.070792 41.2957L0.0819067 32.6719C0.0823799 32.2457 0.0893902 31.8155 0.0964282 31.3837C0.115222 30.2304 0.134212 29.065 0.0294604 27.9324L0.0193845 27.8331C0.0081726 27.3162 0.0247443 26.7956 0.0412746 26.2762C0.0485584 26.0473 0.0558342 25.8187 0.0607214 25.5909C0.0630296 25.2865 0.0653642 24.9821 0.0676992 24.6777C0.10929 19.2552 0.150995 13.8178 0.0450909 8.39816C-0.00924507 7.8802 -0.00224442 7.3384 0.00466668 6.80352C0.00780685 6.56048 0.0109285 6.31889 0.00826979 6.0816L0.00653129 0.0866661C0.977983 0.0906892 1.95037 0.0987524 2.92316 0.106819C5.50249 0.128207 8.08463 0.149618 10.6595 0.0958068C10.9551 0.0999846 11.2846 0.11592 11.6248 0.132373C12.3215 0.166062 13.063 0.201922 13.6497 0.143469C14.9283 0.079851 16.2223 0.0931502 17.5109 0.106395C18.0375 0.111806 18.563 0.117209 19.0864 0.117351L28.8336 0.118333L37.1919 0.114905C37.6109 0.115164 38.0364 0.107506 38.4641 0.0998082C39.3846 0.0832411 40.3151 0.066495 41.2113 0.128126C43.327 0.337387 47.0905 0.189175 49.2873 0.060713ZM49.0866 11.1292L48.9606 11.1014C44.4591 11.1977 39.9476 11.1739 35.4391 11.1501C33.5121 11.14 31.5854 11.1298 29.6605 11.129C27.6811 11.1282 25.6998 11.1379 23.7178 11.1476H23.7175C19.3544 11.1689 14.988 11.1902 10.6326 11.0996L10.8292 29.6599L49.0866 21.479C49.0872 21.3897 49.0928 21.1073 49.101 20.6899C49.1481 18.3062 49.282 11.5178 49.0866 11.1292ZM49.1931 30.0101L49.179 33.589L49.1931 42.5908C49.1938 42.9576 49.2097 43.3567 49.2261 43.7696C49.2702 44.8723 49.3182 46.073 49.09 47.0159C48.8222 48.1231 48.0272 49.1587 47.1659 49.9313C46.1433 50.8486 44.6238 51.7711 43.2296 52.6176C42.6751 52.9542 42.1405 53.2789 41.6647 53.5864L34.8366 57.9193C34.3795 58.2107 33.9238 58.5068 33.4676 58.8032C32.2853 59.5712 31.0992 60.3417 29.8773 61.0417C26.0797 58.5833 22.2645 56.1492 18.4316 53.7396C17.9945 53.4595 17.5465 53.1825 17.0958 52.9037C15.5659 51.9576 14.0028 50.991 12.7141 49.8089C11.9516 49.1098 11.3017 48.3393 10.9481 47.3836C10.547 46.3001 10.602 43.2296 10.6412 41.0384C10.6531 40.3737 10.6636 39.79 10.6594 39.3671L49.1931 30.0101Z" fill="#744746"/>
</g>
<defs>
<clipPath id="clip0_965_1846">
<rect width="60" height="72" fill="white"/>
</clipPath>
</defs>
</svg>
