<svg width="249" height="72" viewBox="0 0 249 72" fill="none" xmlns="http://www.w3.org/2000/svg">
<path d="M83.152 21.88V27.544L80.048 30.52H71.76V8.984H80.048L82.768 11.544V17.08L80.08 19.512L83.152 21.88ZM75.952 18.008H78.96V12.28H75.952V18.008ZM75.952 27.256H78.96V21.272H75.952V27.256ZM98.0583 22.264V30.52H94.0583V21.528H90.9863V30.52H86.7623V8.984H94.8903L98.0583 11.96V17.4L95.2423 19.864L98.0583 22.264ZM90.9863 18.232H94.0583V12.28H90.9863V18.232ZM113.029 8.984V27.512L109.957 30.52H104.613L101.509 27.544V8.984H105.701V27.256H108.837V8.984H113.029ZM127.583 21.08V27.512L124.511 30.52H119.231L116.159 27.544V24.248H120.351V27.256H123.455V21.624L119.455 21.272L116.159 18.328V11.96L119.295 8.984H124.287L127.487 11.96V15.256H123.455V12.28H120.351V17.784L124.351 18.104L127.583 21.08ZM141.959 21.848V27.544L138.855 30.52H133.959L130.599 27.512V11.96L133.671 8.984H138.855L141.959 11.96V16.696H137.927V12.28H134.727V27.256H137.927V21.848H141.959ZM156.496 8.984V30.52H152.368V21.4H149.296V30.52H145.104V8.984H149.296V18.104H152.368V8.984H156.496ZM168.01 8.92L171.178 30.52H167.114L166.698 26.328H162.826L162.41 30.52H158.346L161.386 8.92H168.01ZM163.146 23.064H166.442L165.386 12.824H163.978L163.146 23.064ZM181.809 8.984V12.28H178.929V30.52H174.801V12.28H171.889V8.984H181.809ZM192.582 19L197.446 30.52H192.966L189.286 21.176L188.358 21.368V30.52H184.166V8.984H188.358V18.136L189.286 18.296L192.55 8.984H196.774L192.582 19ZM207.698 8.92L210.866 30.52H206.802L206.385 26.328H202.514L202.098 30.52H198.034L201.074 8.92H207.698ZM202.834 23.064H206.13L205.074 12.824H203.666L202.834 23.064ZM216.729 27.128V30.52H212.601V27.128H216.729ZM231.59 22.264V30.52H227.59V21.528H224.518V30.52H220.294V8.984H228.422L231.59 11.96V17.4L228.774 19.864L231.59 22.264ZM224.518 18.232H227.59V12.28H224.518V18.232ZM246.56 8.984V27.512L243.488 30.52H238.144L235.04 27.544V8.984H239.232V27.256H242.368V8.984H246.56Z" fill="#744746"/>
<path d="M71.05 55V44.2H75.37C76.14 44.2 76.7625 44.355 77.2375 44.665C77.7125 44.97 78.06 45.355 78.28 45.82C78.5 46.285 78.61 46.755 78.61 47.23C78.61 47.835 78.4725 48.3375 78.1975 48.7375C77.9275 49.1375 77.555 49.405 77.08 49.54V49.165C77.755 49.305 78.26 49.6175 78.595 50.1025C78.935 50.5875 79.105 51.13 79.105 51.73C79.105 52.375 78.985 52.9425 78.745 53.4325C78.51 53.9225 78.15 54.3075 77.665 54.5875C77.18 54.8625 76.57 55 75.835 55H71.05ZM73.12 53.08H75.625C75.9 53.08 76.145 53.0225 76.36 52.9075C76.575 52.7875 76.7425 52.6225 76.8625 52.4125C76.9875 52.1975 77.05 51.945 77.05 51.655C77.05 51.4 76.9975 51.1725 76.8925 50.9725C76.7875 50.7725 76.6275 50.615 76.4125 50.5C76.2025 50.38 75.94 50.32 75.625 50.32H73.12V53.08ZM73.12 48.415H75.34C75.57 48.415 75.775 48.375 75.955 48.295C76.135 48.215 76.2775 48.0925 76.3825 47.9275C76.4875 47.7575 76.54 47.54 76.54 47.275C76.54 46.945 76.4375 46.6675 76.2325 46.4425C76.0275 46.2175 75.73 46.105 75.34 46.105H73.12V48.415ZM80.5858 55V44.2H82.6258V47.86H85.1458C85.2458 47.86 85.3858 47.865 85.5658 47.875C85.7458 47.88 85.9058 47.895 86.0458 47.92C86.6858 48.02 87.2108 48.2325 87.6208 48.5575C88.0358 48.8825 88.3408 49.2925 88.5358 49.7875C88.7358 50.2775 88.8358 50.825 88.8358 51.43C88.8358 52.035 88.7383 52.585 88.5433 53.08C88.3483 53.57 88.0433 53.9775 87.6283 54.3025C87.2183 54.6275 86.6908 54.84 86.0458 54.94C85.9058 54.96 85.7458 54.975 85.5658 54.985C85.3908 54.995 85.2508 55 85.1458 55H80.5858ZM82.6258 53.095H85.0558C85.1608 53.095 85.2758 53.09 85.4008 53.08C85.5258 53.07 85.6408 53.05 85.7458 53.02C86.0208 52.945 86.2333 52.82 86.3833 52.645C86.5333 52.465 86.6358 52.2675 86.6908 52.0525C86.7508 51.8325 86.7808 51.625 86.7808 51.43C86.7808 51.235 86.7508 51.03 86.6908 50.815C86.6358 50.595 86.5333 50.3975 86.3833 50.2225C86.2333 50.0425 86.0208 49.915 85.7458 49.84C85.6408 49.81 85.5258 49.79 85.4008 49.78C85.2758 49.77 85.1608 49.765 85.0558 49.765H82.6258V53.095ZM89.9158 55V44.2H91.9558V55H89.9158ZM94.0627 55V44.2H101.113V46.105H96.1027V55H94.0627ZM106.945 55.225C105.865 55.225 104.932 54.99 104.147 54.52C103.367 54.05 102.765 53.3925 102.34 52.5475C101.92 51.7025 101.71 50.72 101.71 49.6C101.71 48.48 101.92 47.4975 102.34 46.6525C102.765 45.8075 103.367 45.15 104.147 44.68C104.932 44.21 105.865 43.975 106.945 43.975C108.025 43.975 108.955 44.21 109.735 44.68C110.52 45.15 111.122 45.8075 111.542 46.6525C111.967 47.4975 112.18 48.48 112.18 49.6C112.18 50.72 111.967 51.7025 111.542 52.5475C111.122 53.3925 110.52 54.05 109.735 54.52C108.955 54.99 108.025 55.225 106.945 55.225ZM106.945 53.305C107.63 53.315 108.2 53.1675 108.655 52.8625C109.11 52.5575 109.45 52.125 109.675 51.565C109.905 51.005 110.02 50.35 110.02 49.6C110.02 48.85 109.905 48.2 109.675 47.65C109.45 47.1 109.11 46.6725 108.655 46.3675C108.2 46.0625 107.63 45.905 106.945 45.895C106.26 45.885 105.69 46.0325 105.235 46.3375C104.78 46.6425 104.437 47.075 104.207 47.635C103.982 48.195 103.87 48.85 103.87 49.6C103.87 50.35 103.982 51 104.207 51.55C104.437 52.1 104.78 52.5275 105.235 52.8325C105.69 53.1375 106.26 53.295 106.945 53.305ZM112.784 56.8V53.095C113.109 53.095 113.384 53.015 113.609 52.855C113.839 52.69 114.026 52.46 114.171 52.165C114.316 51.865 114.431 51.515 114.516 51.115C114.601 50.715 114.664 50.28 114.704 49.81C114.754 49.21 114.799 48.62 114.839 48.04C114.879 47.455 114.919 46.85 114.959 46.225C114.999 45.595 115.044 44.915 115.094 44.185L122.264 44.2V53.095H123.089V56.8H121.049V55H114.824V56.8H112.784ZM115.829 53.095H120.224V46.105L116.954 46.09C116.919 46.585 116.889 47.04 116.864 47.455C116.844 47.87 116.819 48.29 116.789 48.715C116.759 49.14 116.719 49.615 116.669 50.14C116.619 50.665 116.569 51.0975 116.519 51.4375C116.469 51.7725 116.391 52.065 116.286 52.315C116.186 52.565 116.034 52.825 115.829 53.095ZM124.737 55V44.2H126.777V48.64H131.607V44.2H133.647V55H131.607V50.545H126.777V55H124.737ZM140.387 55.225C139.307 55.225 138.375 54.99 137.59 54.52C136.81 54.05 136.207 53.3925 135.782 52.5475C135.362 51.7025 135.152 50.72 135.152 49.6C135.152 48.48 135.362 47.4975 135.782 46.6525C136.207 45.8075 136.81 45.15 137.59 44.68C138.375 44.21 139.307 43.975 140.387 43.975C141.467 43.975 142.397 44.21 143.177 44.68C143.962 45.15 144.565 45.8075 144.985 46.6525C145.41 47.4975 145.622 48.48 145.622 49.6C145.622 50.72 145.41 51.7025 144.985 52.5475C144.565 53.3925 143.962 54.05 143.177 54.52C142.397 54.99 141.467 55.225 140.387 55.225ZM140.387 53.305C141.072 53.315 141.642 53.1675 142.097 52.8625C142.552 52.5575 142.892 52.125 143.117 51.565C143.347 51.005 143.462 50.35 143.462 49.6C143.462 48.85 143.347 48.2 143.117 47.65C142.892 47.1 142.552 46.6725 142.097 46.3675C141.642 46.0625 141.072 45.905 140.387 45.895C139.702 45.885 139.132 46.0325 138.677 46.3375C138.222 46.6425 137.88 47.075 137.65 47.635C137.425 48.195 137.312 48.85 137.312 49.6C137.312 50.35 137.425 51 137.65 51.55C137.88 52.1 138.222 52.5275 138.677 52.8325C139.132 53.1375 139.702 53.295 140.387 53.305ZM146.702 55V52.96H148.742V55H146.702ZM151.177 55V44.2H155.497C156.267 44.2 156.889 44.355 157.364 44.665C157.839 44.97 158.187 45.355 158.407 45.82C158.627 46.285 158.737 46.755 158.737 47.23C158.737 47.835 158.599 48.3375 158.324 48.7375C158.054 49.1375 157.682 49.405 157.207 49.54V49.165C157.882 49.305 158.387 49.6175 158.722 50.1025C159.062 50.5875 159.232 51.13 159.232 51.73C159.232 52.375 159.112 52.9425 158.872 53.4325C158.637 53.9225 158.277 54.3075 157.792 54.5875C157.307 54.8625 156.697 55 155.962 55H151.177ZM153.247 53.08H155.752C156.027 53.08 156.272 53.0225 156.487 52.9075C156.702 52.7875 156.869 52.6225 156.989 52.4125C157.114 52.1975 157.177 51.945 157.177 51.655C157.177 51.4 157.124 51.1725 157.019 50.9725C156.914 50.7725 156.754 50.615 156.539 50.5C156.329 50.38 156.067 50.32 155.752 50.32H153.247V53.08ZM153.247 48.415H155.467C155.697 48.415 155.902 48.375 156.082 48.295C156.262 48.215 156.404 48.0925 156.509 47.9275C156.614 47.7575 156.667 47.54 156.667 47.275C156.667 46.945 156.564 46.6675 156.359 46.4425C156.154 46.2175 155.857 46.105 155.467 46.105H153.247V48.415ZM160.728 55V44.2H167.778V46.105H162.768V48.415H166.878V50.32H162.768V53.095H167.778V55H160.728ZM175.71 55V50.29L175.995 50.755C175.72 51 175.328 51.19 174.818 51.325C174.313 51.455 173.785 51.52 173.235 51.52C172.335 51.52 171.618 51.3425 171.083 50.9875C170.548 50.6275 170.163 50.1325 169.928 49.5025C169.693 48.8675 169.575 48.135 169.575 47.305V44.2H171.645V46.69C171.645 47.015 171.658 47.3475 171.683 47.6875C171.708 48.0275 171.78 48.3425 171.9 48.6325C172.025 48.9225 172.23 49.1575 172.515 49.3375C172.8 49.5125 173.2 49.6 173.715 49.6C174.27 49.6 174.74 49.505 175.125 49.315C175.51 49.12 175.78 48.915 175.935 48.7L175.71 49.615V44.2H177.765V55H175.71ZM179.859 55V44.2H181.899V48.64H186.729V44.2H188.769V55H186.729V50.545H181.899V55H179.859ZM195.509 55.225C194.429 55.225 193.497 54.99 192.712 54.52C191.932 54.05 191.329 53.3925 190.904 52.5475C190.484 51.7025 190.274 50.72 190.274 49.6C190.274 48.48 190.484 47.4975 190.904 46.6525C191.329 45.8075 191.932 45.15 192.712 44.68C193.497 44.21 194.429 43.975 195.509 43.975C196.589 43.975 197.519 44.21 198.299 44.68C199.084 45.15 199.687 45.8075 200.107 46.6525C200.532 47.4975 200.744 48.48 200.744 49.6C200.744 50.72 200.532 51.7025 200.107 52.5475C199.687 53.3925 199.084 54.05 198.299 54.52C197.519 54.99 196.589 55.225 195.509 55.225ZM195.509 53.305C196.194 53.315 196.764 53.1675 197.219 52.8625C197.674 52.5575 198.014 52.125 198.239 51.565C198.469 51.005 198.584 50.35 198.584 49.6C198.584 48.85 198.469 48.2 198.239 47.65C198.014 47.1 197.674 46.6725 197.219 46.3675C196.764 46.0625 196.194 45.905 195.509 45.895C194.824 45.885 194.254 46.0325 193.799 46.3375C193.344 46.6425 193.002 47.075 192.772 47.635C192.547 48.195 192.434 48.85 192.434 49.6C192.434 50.35 192.547 51 192.772 51.55C193.002 52.1 193.344 52.5275 193.799 52.8325C194.254 53.1375 194.824 53.295 195.509 53.305ZM201.824 55V52.96H203.864V55H201.824ZM75.325 70.225C74.515 70.225 73.79 70.1025 73.15 69.8575C72.515 69.6075 71.975 69.23 71.53 68.725C71.09 68.22 70.755 67.585 70.525 66.82L72.52 66.325C72.71 66.9 73.0375 67.375 73.5025 67.75C73.9675 68.125 74.53 68.31 75.19 68.305C75.655 68.295 76.0975 68.2025 76.5175 68.0275C76.9425 67.8525 77.285 67.585 77.545 67.225C77.735 66.985 77.88 66.7225 77.98 66.4375C78.085 66.1475 78.16 65.85 78.205 65.545H74.425V63.64H78.22C78.13 63.09 77.955 62.6075 77.695 62.1925C77.435 61.7775 77.095 61.455 76.675 61.225C76.255 60.995 75.76 60.885 75.19 60.895C74.515 60.9 73.94 61.09 73.465 61.465C72.995 61.84 72.67 62.34 72.49 62.965L70.45 62.68C70.72 61.5 71.2775 60.5875 72.1225 59.9425C72.9675 59.2975 74.035 58.975 75.325 58.975C76.37 58.975 77.2725 59.2125 78.0325 59.6875C78.7975 60.1575 79.3875 60.815 79.8025 61.66C80.2175 62.505 80.425 63.485 80.425 64.6C80.425 65.65 80.22 66.6 79.81 67.45C79.405 68.3 78.82 68.975 78.055 69.475C77.295 69.975 76.385 70.225 75.325 70.225ZM82.6691 70V59.2H84.7091V64.18L88.8191 59.2H91.3091L86.7941 64.525L91.5941 70H89.0141L84.7091 65.08V70H82.6691ZM97.4291 70.225C96.3491 70.225 95.4166 69.99 94.6316 69.52C93.8516 69.05 93.2491 68.3925 92.8241 67.5475C92.4041 66.7025 92.1941 65.72 92.1941 64.6C92.1941 63.48 92.4041 62.4975 92.8241 61.6525C93.2491 60.8075 93.8516 60.15 94.6316 59.68C95.4166 59.21 96.3491 58.975 97.4291 58.975C98.6691 58.975 99.7091 59.2825 100.549 59.8975C101.394 60.5125 101.989 61.345 102.334 62.395L100.279 62.965C100.079 62.31 99.7416 61.8025 99.2666 61.4425C98.7916 61.0775 98.1791 60.895 97.4291 60.895C96.7441 60.895 96.1716 61.0475 95.7116 61.3525C95.2566 61.6575 94.9141 62.0875 94.6841 62.6425C94.4541 63.1975 94.3391 63.85 94.3391 64.6C94.3391 65.35 94.4541 66.0025 94.6841 66.5575C94.9141 67.1125 95.2566 67.5425 95.7116 67.8475C96.1716 68.1525 96.7441 68.305 97.4291 68.305C98.1791 68.305 98.7916 68.1225 99.2666 67.7575C99.7416 67.3925 100.079 66.885 100.279 66.235L102.334 66.805C101.989 67.855 101.394 68.6875 100.549 69.3025C99.7091 69.9175 98.6691 70.225 97.4291 70.225ZM104.736 70V59.2H106.776V64.18L110.886 59.2H113.376L108.861 64.525L113.661 70H111.081L106.776 65.08V70H104.736ZM114.711 70V68.305C114.941 68.32 115.136 68.3 115.296 68.245C115.456 68.19 115.591 68.09 115.701 67.945C115.816 67.795 115.916 67.59 116.001 67.33C116.086 67.065 116.166 66.735 116.241 66.34C116.361 65.715 116.461 65.0575 116.541 64.3675C116.626 63.6725 116.696 62.9925 116.751 62.3275C116.806 61.6625 116.849 61.0575 116.879 60.5125C116.909 59.9625 116.931 59.525 116.946 59.2H124.311V70H122.271V61.105H118.821C118.801 61.385 118.774 61.75 118.739 62.2C118.709 62.65 118.666 63.1475 118.611 63.6925C118.556 64.2375 118.489 64.8025 118.409 65.3875C118.329 65.9725 118.231 66.54 118.116 67.09C118.011 67.625 117.884 68.1 117.734 68.515C117.584 68.925 117.384 69.2625 117.134 69.5275C116.889 69.7875 116.571 69.96 116.181 70.045C115.791 70.13 115.301 70.115 114.711 70ZM127.168 70V59.2H129.208V63.58H131.008V65.62H129.208V70H127.168ZM135.388 70.225C134.673 70.225 134.031 70.0975 133.461 69.8425C132.891 69.5875 132.406 69.2175 132.006 68.7325C131.606 68.2425 131.298 67.65 131.083 66.955C130.873 66.26 130.768 65.475 130.768 64.6C130.768 63.72 130.873 62.935 131.083 62.245C131.298 61.55 131.606 60.96 132.006 60.475C132.406 59.985 132.891 59.6125 133.461 59.3575C134.031 59.1025 134.673 58.975 135.388 58.975C136.103 58.975 136.746 59.1025 137.316 59.3575C137.886 59.6125 138.371 59.985 138.771 60.475C139.171 60.96 139.476 61.55 139.686 62.245C139.901 62.935 140.008 63.72 140.008 64.6C140.008 65.475 139.901 66.26 139.686 66.955C139.476 67.65 139.171 68.2425 138.771 68.7325C138.371 69.2175 137.886 69.5875 137.316 69.8425C136.746 70.0975 136.103 70.225 135.388 70.225ZM135.388 68.305C135.808 68.305 136.173 68.2175 136.483 68.0425C136.793 67.8625 137.048 67.61 137.248 67.285C137.448 66.955 137.598 66.5625 137.698 66.1075C137.798 65.6525 137.848 65.15 137.848 64.6C137.848 64.05 137.798 63.5475 137.698 63.0925C137.598 62.6375 137.448 62.2475 137.248 61.9225C137.048 61.5925 136.793 61.34 136.483 61.165C136.173 60.985 135.808 60.895 135.388 60.895C134.968 60.895 134.603 60.985 134.293 61.165C133.983 61.34 133.728 61.5925 133.528 61.9225C133.328 62.2475 133.178 62.6375 133.078 63.0925C132.978 63.5475 132.928 64.05 132.928 64.6C132.928 65.15 132.978 65.6525 133.078 66.1075C133.178 66.5625 133.328 66.955 133.528 67.285C133.728 67.61 133.983 67.8625 134.293 68.0425C134.603 68.2175 134.968 68.305 135.388 68.305ZM146.204 70.225C145.439 70.225 144.766 70.1125 144.186 69.8875C143.611 69.6625 143.126 69.375 142.731 69.025C142.336 68.67 142.029 68.3 141.809 67.915L143.534 66.715C143.654 66.965 143.824 67.2125 144.044 67.4575C144.264 67.7025 144.556 67.905 144.921 68.065C145.286 68.225 145.744 68.305 146.294 68.305C146.814 68.305 147.231 68.23 147.546 68.08C147.866 67.93 148.096 67.7375 148.236 67.5025C148.381 67.2675 148.454 67.02 148.454 66.76C148.454 66.415 148.351 66.15 148.146 65.965C147.946 65.78 147.686 65.6525 147.366 65.5825C147.046 65.5075 146.709 65.465 146.354 65.455C146.009 65.445 145.759 65.4375 145.604 65.4325C145.454 65.4275 145.351 65.425 145.296 65.425C145.246 65.425 145.199 65.425 145.154 65.425V63.505C145.219 63.505 145.314 63.505 145.439 63.505C145.569 63.505 145.699 63.505 145.829 63.505C145.964 63.5 146.074 63.495 146.159 63.49C146.684 63.465 147.121 63.35 147.471 63.145C147.826 62.94 148.004 62.62 148.004 62.185C148.004 61.785 147.846 61.4675 147.531 61.2325C147.221 60.9975 146.804 60.88 146.279 60.88C145.784 60.88 145.341 60.9875 144.951 61.2025C144.566 61.4125 144.284 61.645 144.104 61.9L142.709 60.4C143.084 60.01 143.586 59.675 144.216 59.395C144.846 59.115 145.554 58.975 146.339 58.975C146.814 58.975 147.279 59.0375 147.734 59.1625C148.189 59.2825 148.599 59.47 148.964 59.725C149.329 59.975 149.619 60.2975 149.834 60.6925C150.054 61.0875 150.164 61.56 150.164 62.11C150.164 62.575 150.081 63.015 149.916 63.43C149.751 63.84 149.514 64.185 149.204 64.465C149.654 64.665 150.001 64.955 150.246 65.335C150.491 65.715 150.614 66.19 150.614 66.76C150.614 67.475 150.414 68.0925 150.014 68.6125C149.619 69.1275 149.086 69.525 148.416 69.805C147.751 70.085 147.014 70.225 146.204 70.225ZM161.849 70H159.779V62.8L155.084 70H153.014V59.2H155.084V66.4L159.779 59.2H161.849V70ZM164.692 70V59.2H169.012C169.782 59.2 170.404 59.355 170.879 59.665C171.354 59.97 171.702 60.355 171.922 60.82C172.142 61.285 172.252 61.755 172.252 62.23C172.252 62.835 172.114 63.3375 171.839 63.7375C171.569 64.1375 171.197 64.405 170.722 64.54V64.165C171.397 64.305 171.902 64.6175 172.237 65.1025C172.577 65.5875 172.747 66.13 172.747 66.73C172.747 67.375 172.627 67.9425 172.387 68.4325C172.152 68.9225 171.792 69.3075 171.307 69.5875C170.822 69.8625 170.212 70 169.477 70H164.692ZM166.762 68.08H169.267C169.542 68.08 169.787 68.0225 170.002 67.9075C170.217 67.7875 170.384 67.6225 170.504 67.4125C170.629 67.1975 170.692 66.945 170.692 66.655C170.692 66.4 170.639 66.1725 170.534 65.9725C170.429 65.7725 170.269 65.615 170.054 65.5C169.844 65.38 169.582 65.32 169.267 65.32H166.762V68.08ZM166.762 63.415H168.982C169.212 63.415 169.417 63.375 169.597 63.295C169.777 63.215 169.919 63.0925 170.024 62.9275C170.129 62.7575 170.182 62.54 170.182 62.275C170.182 61.945 170.079 61.6675 169.874 61.4425C169.669 61.2175 169.372 61.105 168.982 61.105H166.762V63.415ZM174.992 70V59.2H177.032V63.64H181.862V59.2H183.902V70H181.862V65.545H177.032V70H174.992ZM191.393 70.225C190.313 70.225 189.381 69.99 188.596 69.52C187.816 69.05 187.213 68.3925 186.788 67.5475C186.368 66.7025 186.158 65.72 186.158 64.6C186.158 63.48 186.368 62.4975 186.788 61.6525C187.213 60.8075 187.816 60.15 188.596 59.68C189.381 59.21 190.313 58.975 191.393 58.975C192.473 58.975 193.403 59.21 194.183 59.68C194.968 60.15 195.571 60.8075 195.991 61.6525C196.416 62.4975 196.628 63.48 196.628 64.6C196.628 65.72 196.416 66.7025 195.991 67.5475C195.571 68.3925 194.968 69.05 194.183 69.52C193.403 69.99 192.473 70.225 191.393 70.225ZM191.393 68.305C192.078 68.315 192.648 68.1675 193.103 67.8625C193.558 67.5575 193.898 67.125 194.123 66.565C194.353 66.005 194.468 65.35 194.468 64.6C194.468 63.85 194.353 63.2 194.123 62.65C193.898 62.1 193.558 61.6725 193.103 61.3675C192.648 61.0625 192.078 60.905 191.393 60.895C190.708 60.885 190.138 61.0325 189.683 61.3375C189.228 61.6425 188.886 62.075 188.656 62.635C188.431 63.195 188.318 63.85 188.318 64.6C188.318 65.35 188.431 66 188.656 66.55C188.886 67.1 189.228 67.5275 189.683 67.8325C190.138 68.1375 190.708 68.295 191.393 68.305ZM198.458 70V67.96H200.498V70H198.458Z" fill="#1E1E1E"/>
<g clip-path="url(#clip0_2587_645)">
<path fill-rule="evenodd" clip-rule="evenodd" d="M49.2873 0.060713C49.4042 0.0550773 49.5306 0.0456711 49.6616 0.0359253C50.054 0.00671736 50.4874 -0.025542 50.829 0.0314923C52.0813 0.24059 54.4209 1.89934 55.3685 2.70699C57.9927 4.94308 59.6569 8.00462 59.816 11.3503C59.8938 12.9898 59.8804 14.6418 59.867 16.2888V16.2891C59.8624 16.8714 59.8576 17.453 59.857 18.0333L59.8436 29.8255L59.8584 38.7128C59.8586 39.1649 59.8631 39.6188 59.8675 40.0737C59.8899 42.3992 59.9127 44.7524 59.4006 47.0248C59.3583 47.2223 59.3125 47.419 59.263 47.6147C59.2136 47.8107 59.1605 48.0057 59.104 48.1999C59.0476 48.394 58.9875 48.5873 58.9239 48.7796C58.8604 48.9719 58.7934 49.1631 58.723 49.3532C58.6525 49.5433 58.5785 49.7323 58.5014 49.9201C58.424 50.1078 58.3433 50.2942 58.2592 50.4795C58.175 50.6646 58.0876 50.8485 57.997 51.0308C57.9062 51.2133 57.8122 51.3941 57.715 51.5734C57.6175 51.7528 57.517 51.9305 57.4133 52.1067C57.3095 52.2828 57.2027 52.4573 57.0927 52.6301C56.9825 52.8027 56.8693 52.9736 56.7531 53.1428C56.6369 53.3118 56.5176 53.4789 56.3951 53.6441C56.2729 53.8094 56.1476 53.9728 56.0193 54.1341C55.891 54.2953 55.7598 54.4544 55.6259 54.6115C55.4919 54.7686 55.355 54.9235 55.2153 55.0761C55.0758 55.2288 54.9334 55.3793 54.7882 55.5274C52.6437 57.7154 50.0231 59.3819 47.4117 61.0427C46.8349 61.4095 46.2583 61.7761 45.6876 62.148L37.2433 67.7283C36.6124 68.1409 35.9744 68.5484 35.3358 68.9562L35.335 68.9566C33.9467 69.8431 32.555 70.7317 31.2254 71.6813C31.119 71.707 31.0132 71.734 30.9077 71.761L30.9073 71.7611C30.1548 71.9535 29.4179 72.1418 28.6585 71.8464C28.0388 71.2495 26.6204 70.3816 25.427 69.6515L25.4269 69.6513C24.9315 69.3483 24.475 69.0689 24.1303 68.8425L13.2225 61.7346C12.7225 61.4064 12.2135 61.0832 11.7031 60.759C10.3474 59.8981 8.98149 59.0306 7.74623 58.046C4.10208 55.1414 0.98487 50.7012 0.222242 46.2228C0.0114963 44.9851 0.0344245 43.6907 0.0569565 42.4186C0.0636336 42.0416 0.0702758 41.6667 0.070792 41.2957L0.0819067 32.6719C0.0823799 32.2457 0.0893902 31.8155 0.0964282 31.3837C0.115222 30.2304 0.134212 29.065 0.0294604 27.9324L0.0193845 27.8331C0.0081726 27.3162 0.0247443 26.7956 0.0412746 26.2762C0.0485584 26.0473 0.0558343 25.8187 0.0607214 25.5909C0.0630296 25.2865 0.0653642 24.9821 0.0676992 24.6777C0.10929 19.2552 0.150995 13.8178 0.0450909 8.39816C-0.00924506 7.8802 -0.00224442 7.3384 0.00466668 6.80352C0.00780685 6.56048 0.0109285 6.31889 0.00826979 6.0816L0.00653129 0.0866661C0.977983 0.0906892 1.95037 0.0987524 2.92316 0.106819C5.50249 0.128207 8.08463 0.149618 10.6595 0.0958068C10.9551 0.0999846 11.2846 0.11592 11.6248 0.132373C12.3215 0.166062 13.063 0.201922 13.6497 0.143469C14.9283 0.079851 16.2223 0.0931502 17.5109 0.106395C18.0375 0.111806 18.563 0.117209 19.0864 0.117351L28.8336 0.118333L37.1919 0.114905C37.6109 0.115164 38.0364 0.107506 38.4641 0.0998082C39.3846 0.0832411 40.3151 0.066495 41.2112 0.128126C43.327 0.337387 47.0905 0.189175 49.2873 0.060713ZM49.0866 11.1292L48.9606 11.1014C44.4591 11.1977 39.9476 11.1739 35.4391 11.1501C33.5121 11.14 31.5854 11.1298 29.6605 11.129C27.6811 11.1282 25.6998 11.1379 23.7178 11.1476H23.7175C19.3544 11.1689 14.988 11.1902 10.6326 11.0996L10.8292 29.6599L49.0866 21.479C49.0872 21.3897 49.0928 21.1073 49.101 20.6899C49.1481 18.3062 49.282 11.5178 49.0866 11.1292ZM49.1931 30.0101L49.179 33.589L49.1931 42.5908C49.1938 42.9576 49.2097 43.3567 49.2261 43.7696C49.2702 44.8723 49.3182 46.073 49.09 47.0159C48.8222 48.1231 48.0272 49.1587 47.1659 49.9313C46.1434 50.8486 44.6238 51.7711 43.2296 52.6176C42.6751 52.9542 42.1405 53.2789 41.6647 53.5864L34.8366 57.9193C34.3795 58.2107 33.9238 58.5068 33.4676 58.8032C32.2853 59.5712 31.0992 60.3417 29.8773 61.0417C26.0797 58.5833 22.2645 56.1492 18.4316 53.7396C17.9945 53.4595 17.5465 53.1825 17.0958 52.9037C15.5659 51.9576 14.0028 50.991 12.7141 49.8089C11.9516 49.1098 11.3017 48.3393 10.9481 47.3836C10.547 46.3001 10.602 43.2296 10.6412 41.0384C10.6531 40.3737 10.6636 39.79 10.6594 39.3671L49.1931 30.0101Z" fill="#744746"/>
</g>
<defs>
<clipPath id="clip0_2587_645">
<rect width="60" height="72" fill="white"/>
</clipPath>
</defs>
</svg>
